G04*
G04 #@! TF.GenerationSoftware,Altium Limited,Altium Designer,20.0.2 (26)*
G04*
G04 Layer_Color=16711935*
%FSLAX44Y44*%
%MOMM*%
G71*
G01*
G75*
%ADD14C,0.0500*%
%ADD21C,1.7112*%
%ADD22R,1.7112X1.7112*%
%ADD23C,1.3112*%
%ADD24R,1.3112X1.3112*%
%ADD25C,1.7032*%
%ADD26C,6.2032*%
%ADD65R,0.8032X0.7532*%
%ADD66R,1.3970X1.2954*%
%ADD67R,0.7620X1.4986*%
%ADD68R,0.7032X0.7032*%
%ADD69R,1.1049X0.7112*%
%ADD70R,1.2032X2.0032*%
%ADD71R,3.4036X1.6764*%
%ADD72R,1.1032X1.5032*%
%ADD73R,0.7532X0.8032*%
%ADD74R,1.3532X1.5032*%
%ADD75R,1.1532X1.1532*%
%ADD76R,2.5532X3.7032*%
%ADD77R,1.0032X1.0032*%
%ADD78R,0.7032X0.7032*%
%ADD79R,1.6200X0.7358*%
%ADD80R,1.6764X0.5588*%
%ADD81R,1.4986X0.7620*%
%ADD82R,0.7358X1.6200*%
%ADD83R,1.0032X1.0032*%
%ADD84R,1.6764X0.4826*%
%ADD85R,0.4826X1.6764*%
%ADD86P,0.9945X4X90.0*%
G04:AMPARAMS|DCode=87|XSize=1.3462mm|YSize=1.6002mm|CornerRadius=0mm|HoleSize=0mm|Usage=FLASHONLY|Rotation=225.000|XOffset=0mm|YOffset=0mm|HoleType=Round|Shape=Rectangle|*
%AMROTATEDRECTD87*
4,1,4,-0.0898,1.0417,1.0417,-0.0898,0.0898,-1.0417,-1.0417,0.0898,-0.0898,1.0417,0.0*
%
%ADD87ROTATEDRECTD87*%

%ADD88R,1.5032X1.3532*%
%ADD89R,1.6032X1.3032*%
%ADD90R,1.5032X1.1032*%
%ADD91P,0.9945X4X360.0*%
D14*
X0Y-193750D02*
Y193750D01*
X2402375Y0D02*
X2402500Y125D01*
X-2402500Y193750D02*
X2402500D01*
Y-193750D02*
Y193750D01*
X-2402500Y-193750D02*
X2402500D01*
X-2402500D02*
Y193750D01*
D21*
X-2366812Y-137750D02*
D03*
Y-162750D02*
D03*
Y-112750D02*
D03*
D22*
Y-87750D02*
D03*
D23*
X-2377272Y147740D02*
D03*
Y135240D02*
D03*
Y122740D02*
D03*
Y110240D02*
D03*
X-2377272Y45379D02*
D03*
Y32879D02*
D03*
Y20379D02*
D03*
Y7879D02*
D03*
D24*
X-2377272Y97740D02*
D03*
X-2377272Y-4621D02*
D03*
D25*
X-2241562Y-87000D02*
D03*
X-2316562D02*
D03*
D26*
X1704037Y40000D02*
D03*
X1024037D02*
D03*
X344037D02*
D03*
X-335962D02*
D03*
X-1015963D02*
D03*
X-1695963D02*
D03*
X-1865963Y-148750D02*
D03*
X-1015963D02*
D03*
X-335962D02*
D03*
X514038D02*
D03*
X1194037D02*
D03*
X2044037D02*
D03*
D65*
X664250Y-146250D02*
D03*
X672750D02*
D03*
X-2284812Y-173500D02*
D03*
X-2276313D02*
D03*
X-2264563Y-178750D02*
D03*
X-2256062D02*
D03*
X-2253313Y-117000D02*
D03*
X-2244812D02*
D03*
X-2283562Y60500D02*
D03*
X-2275063D02*
D03*
X-2260813Y60250D02*
D03*
X-2252312D02*
D03*
X-1963062Y26500D02*
D03*
X-1971562D02*
D03*
X-1904462Y-51250D02*
D03*
X-1912962D02*
D03*
X-1564462Y-71250D02*
D03*
X-1572962D02*
D03*
X-1394462D02*
D03*
X-1402962D02*
D03*
X-1394462Y-51250D02*
D03*
X-1402962D02*
D03*
X-1054462Y-71250D02*
D03*
X-1062962D02*
D03*
X-1054462Y-51250D02*
D03*
X-1062962D02*
D03*
X-714462D02*
D03*
X-722962D02*
D03*
X-544462D02*
D03*
X-552962D02*
D03*
X-544462Y-71250D02*
D03*
X-552962D02*
D03*
X-204462Y-51250D02*
D03*
X-212962D02*
D03*
X-158313Y-63000D02*
D03*
X-149812D02*
D03*
X58938Y162250D02*
D03*
X50437D02*
D03*
X-137812Y-176500D02*
D03*
X-129312D02*
D03*
X152937Y-172500D02*
D03*
X161437D02*
D03*
X181437D02*
D03*
X172938D02*
D03*
X305538Y-51250D02*
D03*
X297038D02*
D03*
X475538Y-71250D02*
D03*
X467038D02*
D03*
X1325538D02*
D03*
X1317038D02*
D03*
X1325538Y-51250D02*
D03*
X1317038D02*
D03*
X1495538Y-71250D02*
D03*
X1487038D02*
D03*
X1835538Y-51250D02*
D03*
X1827038D02*
D03*
X1665538D02*
D03*
X1657038D02*
D03*
X1665538Y-71250D02*
D03*
X1657038D02*
D03*
X2005538Y-51250D02*
D03*
X1997038D02*
D03*
X2005538Y-71250D02*
D03*
X1997038D02*
D03*
X2175538D02*
D03*
X2167038D02*
D03*
X2175538Y-51250D02*
D03*
X2167038D02*
D03*
X2328938Y95750D02*
D03*
X2320437D02*
D03*
X-1971812Y65250D02*
D03*
X-1963313D02*
D03*
X-2068562Y-165000D02*
D03*
X-2077063D02*
D03*
X-2082962Y-71250D02*
D03*
X-2074462D02*
D03*
X2337038Y-51250D02*
D03*
X2345538D02*
D03*
X977038Y-71250D02*
D03*
X985538D02*
D03*
X1147038D02*
D03*
X1155538D02*
D03*
X467038Y-51250D02*
D03*
X475538D02*
D03*
X250438Y-54250D02*
D03*
X258937D02*
D03*
X-1232962Y-51250D02*
D03*
X-1224462D02*
D03*
X2337038Y-71250D02*
D03*
X2345538D02*
D03*
X297038D02*
D03*
X305538D02*
D03*
X1487038Y-51250D02*
D03*
X1495538D02*
D03*
X-2082962D02*
D03*
X-2074462D02*
D03*
X-892962D02*
D03*
X-884462D02*
D03*
X-892962Y-71250D02*
D03*
X-884462D02*
D03*
X-1742962D02*
D03*
X-1734462D02*
D03*
X977038Y-51250D02*
D03*
X985538D02*
D03*
X-1572962D02*
D03*
X-1564462D02*
D03*
X-149812Y-50500D02*
D03*
X-158313D02*
D03*
X1147038Y-51250D02*
D03*
X1155538D02*
D03*
X-1232962Y-71250D02*
D03*
X-1224462D02*
D03*
X250438Y-68500D02*
D03*
X258937D02*
D03*
X-117812Y-176500D02*
D03*
X-109312D02*
D03*
X637038Y-51250D02*
D03*
X645538D02*
D03*
X-382962D02*
D03*
X-374462D02*
D03*
X807038D02*
D03*
X815538D02*
D03*
X-1742962D02*
D03*
X-1734462D02*
D03*
X637038Y-71250D02*
D03*
X645538D02*
D03*
X-382962D02*
D03*
X-374462D02*
D03*
X-722962D02*
D03*
X-714462D02*
D03*
X807038D02*
D03*
X815538D02*
D03*
X1827038D02*
D03*
X1835538D02*
D03*
X-1912962D02*
D03*
X-1904462D02*
D03*
X-212962D02*
D03*
X-204462D02*
D03*
X58938Y151000D02*
D03*
X50437D02*
D03*
D66*
X-2346562Y-116750D02*
D03*
Y-84492D02*
D03*
Y-139250D02*
D03*
Y-171508D02*
D03*
X-2307063Y-111811D02*
D03*
Y-144069D02*
D03*
D67*
X-2277063Y-106475D02*
D03*
X-2286562Y-125525D02*
D03*
X-2267563D02*
D03*
X156187Y-138851D02*
D03*
X146687Y-157901D02*
D03*
X165688D02*
D03*
X-124812Y-161901D02*
D03*
X-143813D02*
D03*
X-134312Y-142851D02*
D03*
D68*
X-2223813Y-165250D02*
D03*
Y-174250D02*
D03*
X-2111562Y131500D02*
D03*
Y122500D02*
D03*
X-1941562Y131250D02*
D03*
Y122250D02*
D03*
X-1601313Y131500D02*
D03*
Y122500D02*
D03*
X-122312Y73750D02*
D03*
Y64750D02*
D03*
X-107563Y132250D02*
D03*
Y123250D02*
D03*
X-27313Y122250D02*
D03*
Y131250D02*
D03*
X22438Y122250D02*
D03*
Y131250D02*
D03*
X122188Y63500D02*
D03*
Y72500D02*
D03*
X135688Y33001D02*
D03*
Y24001D02*
D03*
X123438Y-54750D02*
D03*
Y-45750D02*
D03*
X-37562Y-122250D02*
D03*
Y-131250D02*
D03*
X-1771313Y122500D02*
D03*
Y131500D02*
D03*
X122437Y9000D02*
D03*
Y18000D02*
D03*
X134688Y-74500D02*
D03*
Y-65500D02*
D03*
X123438Y-74500D02*
D03*
Y-65500D02*
D03*
X77688Y-131250D02*
D03*
Y-122250D02*
D03*
X12437Y-131250D02*
D03*
Y-122250D02*
D03*
D69*
X-2263250Y-162140D02*
D03*
Y-152640D02*
D03*
Y-143140D02*
D03*
X-2237215D02*
D03*
Y-152640D02*
D03*
Y-162140D02*
D03*
D70*
X-2260663Y78861D02*
D03*
X-2283562D02*
D03*
X-2306463D02*
D03*
D71*
X-2283562Y144139D02*
D03*
D72*
X-2264563Y165000D02*
D03*
X-2283562D02*
D03*
X-2325813Y57750D02*
D03*
X-2306812D02*
D03*
D73*
X-2245562Y176250D02*
D03*
Y184750D02*
D03*
X-2136062Y132250D02*
D03*
Y123750D02*
D03*
X-1948062Y42000D02*
D03*
Y50500D02*
D03*
X-1826313Y60750D02*
D03*
Y52250D02*
D03*
X-1803313Y60750D02*
D03*
Y52250D02*
D03*
X-1791813Y60749D02*
D03*
Y52249D02*
D03*
X-1780813Y60749D02*
D03*
Y52249D02*
D03*
X-1615562Y4250D02*
D03*
Y-4250D02*
D03*
X-1369812Y76000D02*
D03*
Y67500D02*
D03*
X-1275312Y-24000D02*
D03*
Y-15500D02*
D03*
X-935312Y-24750D02*
D03*
Y-16250D02*
D03*
Y3750D02*
D03*
Y-4750D02*
D03*
X-642563Y61999D02*
D03*
Y53499D02*
D03*
X-609562Y62000D02*
D03*
Y53500D02*
D03*
X-598563Y62000D02*
D03*
Y53500D02*
D03*
X-587562Y62000D02*
D03*
Y53500D02*
D03*
X-765238Y3750D02*
D03*
Y-4750D02*
D03*
X-424988Y4500D02*
D03*
Y-4000D02*
D03*
X-255437Y-33000D02*
D03*
Y-24500D02*
D03*
X594688Y4250D02*
D03*
Y-4250D02*
D03*
X934688Y-26000D02*
D03*
Y-17500D02*
D03*
X1104687Y-24500D02*
D03*
Y-16000D02*
D03*
Y4000D02*
D03*
Y-4500D02*
D03*
X1132937Y44000D02*
D03*
Y52500D02*
D03*
X1253186Y60248D02*
D03*
Y51748D02*
D03*
X1264187Y60249D02*
D03*
Y51749D02*
D03*
X1286687Y60249D02*
D03*
Y51749D02*
D03*
X1614688Y4000D02*
D03*
Y-4500D02*
D03*
Y-24500D02*
D03*
Y-16000D02*
D03*
X1810437Y43000D02*
D03*
Y51500D02*
D03*
X1905437Y63999D02*
D03*
Y55499D02*
D03*
X1916434Y64000D02*
D03*
Y55500D02*
D03*
X1927437Y63999D02*
D03*
Y55499D02*
D03*
X1949937Y64000D02*
D03*
Y55500D02*
D03*
X1583687Y-165250D02*
D03*
Y-173750D02*
D03*
X1626438Y-165000D02*
D03*
Y-173500D02*
D03*
X1656187Y-165000D02*
D03*
Y-173500D02*
D03*
X1670692Y-165000D02*
D03*
Y-173500D02*
D03*
X2124688Y5250D02*
D03*
Y-3250D02*
D03*
X1612188Y-173500D02*
D03*
Y-165000D02*
D03*
X1597937Y-173750D02*
D03*
Y-165250D02*
D03*
X1641187Y-173500D02*
D03*
Y-165000D02*
D03*
X1569937Y-173750D02*
D03*
Y-165250D02*
D03*
X1799438Y51500D02*
D03*
Y43000D02*
D03*
X-753312Y47499D02*
D03*
Y38999D02*
D03*
X-741813Y47500D02*
D03*
Y39000D02*
D03*
X1121937Y52500D02*
D03*
Y44000D02*
D03*
X-1936812Y50500D02*
D03*
Y42000D02*
D03*
X-1325813Y40500D02*
D03*
Y32000D02*
D03*
X-1356812Y67750D02*
D03*
Y76250D02*
D03*
X-2005813Y93250D02*
D03*
Y84750D02*
D03*
X1938689Y55500D02*
D03*
Y64000D02*
D03*
X1242187Y51749D02*
D03*
Y60249D02*
D03*
X1275437Y51749D02*
D03*
Y60249D02*
D03*
X-631562Y53500D02*
D03*
Y62000D02*
D03*
X-1814812Y52250D02*
D03*
Y60750D02*
D03*
X1960937Y55501D02*
D03*
Y64001D02*
D03*
X1231187Y51749D02*
D03*
Y60249D02*
D03*
X-620563Y53500D02*
D03*
Y62000D02*
D03*
X-1837563Y52250D02*
D03*
Y60750D02*
D03*
X1954688Y-16000D02*
D03*
Y-24500D02*
D03*
X-1785312Y-15750D02*
D03*
Y-24250D02*
D03*
X-2125438Y-16371D02*
D03*
Y-24871D02*
D03*
X-1955312Y-16500D02*
D03*
Y-25000D02*
D03*
X-1615562Y-15750D02*
D03*
Y-24250D02*
D03*
X-1445713Y-16500D02*
D03*
Y-25000D02*
D03*
X-1105062Y-15250D02*
D03*
Y-23750D02*
D03*
X-765238Y-16250D02*
D03*
Y-24750D02*
D03*
X-424988Y-15500D02*
D03*
Y-24000D02*
D03*
X-595563Y-15500D02*
D03*
Y-24000D02*
D03*
X255187Y-16841D02*
D03*
Y-25341D02*
D03*
X594688Y-15750D02*
D03*
Y-24250D02*
D03*
X424688Y-19750D02*
D03*
Y-28250D02*
D03*
X764688Y-15750D02*
D03*
Y-24250D02*
D03*
X1274938Y-16250D02*
D03*
Y-24750D02*
D03*
X1784688Y-16250D02*
D03*
Y-24750D02*
D03*
X1445188Y-15248D02*
D03*
Y-23748D02*
D03*
X2294937Y-16500D02*
D03*
Y-25000D02*
D03*
X2124688Y-14750D02*
D03*
Y-23250D02*
D03*
X1274938Y-4750D02*
D03*
Y3750D02*
D03*
X-1445713Y-5000D02*
D03*
Y3500D02*
D03*
X2294937Y-5000D02*
D03*
Y3500D02*
D03*
X-1275312Y-4000D02*
D03*
Y4500D02*
D03*
X255187Y-5341D02*
D03*
Y3159D02*
D03*
X-1105062Y-3750D02*
D03*
Y4750D02*
D03*
X1445188Y-3998D02*
D03*
Y4502D02*
D03*
X-2125438Y-4621D02*
D03*
Y3879D02*
D03*
X934688Y-6000D02*
D03*
Y2500D02*
D03*
X1954688Y-4250D02*
D03*
Y4250D02*
D03*
X424688Y-8250D02*
D03*
Y250D02*
D03*
X-595563Y-4000D02*
D03*
Y4500D02*
D03*
X-1955312Y-5000D02*
D03*
Y3500D02*
D03*
X764688Y-4250D02*
D03*
Y4250D02*
D03*
X1784688Y-4500D02*
D03*
Y4000D02*
D03*
X-1785312Y-4250D02*
D03*
Y4250D02*
D03*
X-255437Y-12750D02*
D03*
Y-4250D02*
D03*
X146438Y24000D02*
D03*
Y32500D02*
D03*
D74*
X-2230547Y171982D02*
D03*
X-2208047D02*
D03*
X-2054297Y-164767D02*
D03*
X-2031797D02*
D03*
D75*
X-2219062Y144000D02*
D03*
X-2233562D02*
D03*
D76*
X-2202063Y-147250D02*
D03*
X-2141562D02*
D03*
D77*
X-2108313Y-161250D02*
D03*
Y-146250D02*
D03*
X-134062Y57250D02*
D03*
Y72250D02*
D03*
X146187Y-82000D02*
D03*
Y-67000D02*
D03*
X159187Y-82000D02*
D03*
Y-67000D02*
D03*
X-77312Y-138250D02*
D03*
Y-123250D02*
D03*
X-15812Y138750D02*
D03*
Y123750D02*
D03*
X133687Y64500D02*
D03*
Y79500D02*
D03*
D78*
X-2040562Y80750D02*
D03*
X-2049563D02*
D03*
X-1271312Y122250D02*
D03*
X-1262312D02*
D03*
X-930062Y122500D02*
D03*
X-921062D02*
D03*
X-760813Y122250D02*
D03*
X-751813D02*
D03*
X-716813Y52500D02*
D03*
X-725813D02*
D03*
X-249562Y121500D02*
D03*
X-240562D02*
D03*
X-122312Y22250D02*
D03*
X-131313D02*
D03*
X-122312Y90500D02*
D03*
X-131313D02*
D03*
X97188Y124000D02*
D03*
X88188D02*
D03*
X256938Y122750D02*
D03*
X265938D02*
D03*
X768938Y123000D02*
D03*
X777937D02*
D03*
X1158187Y50500D02*
D03*
X1149187D02*
D03*
X1279437Y122500D02*
D03*
X1288438D02*
D03*
X1109437Y122000D02*
D03*
X1118438D02*
D03*
X1788938Y121500D02*
D03*
X1797937D02*
D03*
X1835938Y51000D02*
D03*
X1826938D02*
D03*
X2128938Y122250D02*
D03*
X2137937D02*
D03*
X1968188Y122000D02*
D03*
X1959187D02*
D03*
X1627688Y121500D02*
D03*
X1618687D02*
D03*
X948187Y121750D02*
D03*
X939187D02*
D03*
X608438Y122000D02*
D03*
X599437D02*
D03*
X-413312D02*
D03*
X-422313D02*
D03*
X-1431562Y121750D02*
D03*
X-1440562D02*
D03*
X2307437Y122500D02*
D03*
X2298438D02*
D03*
X1456938Y121750D02*
D03*
X1447937D02*
D03*
X437687Y122250D02*
D03*
X428688D02*
D03*
X109187Y112000D02*
D03*
X118188D02*
D03*
X-582062Y122250D02*
D03*
X-591063D02*
D03*
X-1092312Y123000D02*
D03*
X-1101312D02*
D03*
X-1341313Y66500D02*
D03*
X-1332312D02*
D03*
X-1917563Y52250D02*
D03*
X-1908562D02*
D03*
X-2275562Y-184000D02*
D03*
X-2284563D02*
D03*
X-100813Y-122000D02*
D03*
X-91812D02*
D03*
X-131237Y-32970D02*
D03*
X-122238D02*
D03*
D79*
X-2044716Y65230D02*
D03*
Y52530D02*
D03*
Y39830D02*
D03*
Y27130D02*
D03*
X-1989908D02*
D03*
Y39830D02*
D03*
Y52530D02*
D03*
Y65230D02*
D03*
D80*
X-1854353Y41000D02*
D03*
Y34500D02*
D03*
Y28000D02*
D03*
Y21500D02*
D03*
Y15000D02*
D03*
Y8500D02*
D03*
Y2000D02*
D03*
Y-4500D02*
D03*
Y-11000D02*
D03*
Y-17500D02*
D03*
Y-24000D02*
D03*
Y-30500D02*
D03*
X-1912773D02*
D03*
Y-24000D02*
D03*
Y-17500D02*
D03*
Y-11000D02*
D03*
Y-4500D02*
D03*
Y2000D02*
D03*
Y8500D02*
D03*
Y15000D02*
D03*
Y21500D02*
D03*
Y28000D02*
D03*
Y34500D02*
D03*
Y41000D02*
D03*
X1212148Y38500D02*
D03*
Y32000D02*
D03*
Y25500D02*
D03*
Y19000D02*
D03*
Y12500D02*
D03*
Y6000D02*
D03*
Y-500D02*
D03*
Y-7000D02*
D03*
Y-13500D02*
D03*
Y-20000D02*
D03*
Y-26500D02*
D03*
Y-33000D02*
D03*
X1153727D02*
D03*
Y-26500D02*
D03*
Y-20000D02*
D03*
Y-13500D02*
D03*
Y-7000D02*
D03*
Y-500D02*
D03*
Y6000D02*
D03*
Y12500D02*
D03*
Y19000D02*
D03*
Y25500D02*
D03*
Y32000D02*
D03*
Y38500D02*
D03*
X1890397Y39500D02*
D03*
Y33000D02*
D03*
Y26500D02*
D03*
Y20000D02*
D03*
Y13500D02*
D03*
Y7000D02*
D03*
Y500D02*
D03*
Y-6000D02*
D03*
Y-12500D02*
D03*
Y-19000D02*
D03*
Y-25500D02*
D03*
Y-32000D02*
D03*
X1831978D02*
D03*
Y-25500D02*
D03*
Y-19000D02*
D03*
Y-12500D02*
D03*
Y-6000D02*
D03*
Y500D02*
D03*
Y7000D02*
D03*
Y13500D02*
D03*
Y20000D02*
D03*
Y26500D02*
D03*
Y33000D02*
D03*
Y39500D02*
D03*
X-720772Y40250D02*
D03*
Y33750D02*
D03*
Y27250D02*
D03*
Y20750D02*
D03*
Y14250D02*
D03*
Y7750D02*
D03*
Y1250D02*
D03*
Y-5250D02*
D03*
Y-11750D02*
D03*
Y-18250D02*
D03*
Y-24750D02*
D03*
Y-31250D02*
D03*
X-662353D02*
D03*
Y-24750D02*
D03*
Y-18250D02*
D03*
Y-11750D02*
D03*
Y-5250D02*
D03*
Y1250D02*
D03*
Y7750D02*
D03*
Y14250D02*
D03*
Y20750D02*
D03*
Y27250D02*
D03*
Y33750D02*
D03*
Y40250D02*
D03*
D81*
X-1818962Y-21250D02*
D03*
X-1799912Y-30750D02*
D03*
Y-11750D02*
D03*
X-1308962Y-21250D02*
D03*
X-1289912Y-30750D02*
D03*
Y-11750D02*
D03*
X-968962Y-21250D02*
D03*
X-949912Y-30750D02*
D03*
Y-11750D02*
D03*
X-288962Y-21250D02*
D03*
X-269912Y-30750D02*
D03*
Y-11750D02*
D03*
X1241038Y-21250D02*
D03*
X1260088Y-30750D02*
D03*
Y-11750D02*
D03*
X1581038Y-21250D02*
D03*
X1600088Y-30750D02*
D03*
Y-11750D02*
D03*
X1411038Y-21250D02*
D03*
X1430088Y-30750D02*
D03*
Y-11750D02*
D03*
X1751038Y-21250D02*
D03*
X1770088Y-30750D02*
D03*
Y-11750D02*
D03*
X2091038Y-21250D02*
D03*
X2110088Y-30750D02*
D03*
Y-11750D02*
D03*
X2261038Y-21250D02*
D03*
X2280088Y-30750D02*
D03*
Y-11750D02*
D03*
X-1969912D02*
D03*
Y-30750D02*
D03*
X-1988962Y-21250D02*
D03*
X-2140038Y-12121D02*
D03*
Y-31121D02*
D03*
X-2159088Y-21621D02*
D03*
X-1460312Y-11750D02*
D03*
Y-30750D02*
D03*
X-1479362Y-21250D02*
D03*
X-1630162Y-11750D02*
D03*
Y-30750D02*
D03*
X-1649212Y-21250D02*
D03*
X-1119662Y-11750D02*
D03*
Y-30750D02*
D03*
X-1138712Y-21250D02*
D03*
X-779838Y-11750D02*
D03*
Y-30750D02*
D03*
X-798888Y-21250D02*
D03*
X-439588Y-11750D02*
D03*
Y-30750D02*
D03*
X-458638Y-21250D02*
D03*
X-610162Y-11250D02*
D03*
Y-30250D02*
D03*
X-629212Y-20750D02*
D03*
X240487Y-12091D02*
D03*
Y-31091D02*
D03*
X221437Y-21591D02*
D03*
X580088Y-11750D02*
D03*
Y-30750D02*
D03*
X561038Y-21250D02*
D03*
X410088Y-11750D02*
D03*
Y-30750D02*
D03*
X391038Y-21250D02*
D03*
X750088Y-11750D02*
D03*
Y-30750D02*
D03*
X731038Y-21250D02*
D03*
X920088Y-11750D02*
D03*
Y-30750D02*
D03*
X901038Y-21250D02*
D03*
X1090088Y-11750D02*
D03*
Y-30750D02*
D03*
X1071038Y-21250D02*
D03*
X1940088Y-11750D02*
D03*
Y-30750D02*
D03*
X1921038Y-21250D02*
D03*
D82*
X-1344332Y49904D02*
D03*
X-1357032D02*
D03*
X-1369733D02*
D03*
X-1382433D02*
D03*
Y-4904D02*
D03*
X-1369733D02*
D03*
X-1357032D02*
D03*
X-1344332D02*
D03*
D83*
X61687Y125500D02*
D03*
X76687D02*
D03*
X-123813Y102000D02*
D03*
X-138813D02*
D03*
D84*
X107126Y87500D02*
D03*
Y82500D02*
D03*
Y77500D02*
D03*
Y72500D02*
D03*
Y67500D02*
D03*
Y62500D02*
D03*
Y57500D02*
D03*
Y52500D02*
D03*
Y47500D02*
D03*
Y42500D02*
D03*
Y37500D02*
D03*
Y32500D02*
D03*
Y27500D02*
D03*
Y22500D02*
D03*
Y17500D02*
D03*
Y12500D02*
D03*
Y7500D02*
D03*
Y2500D02*
D03*
Y-2500D02*
D03*
Y-7500D02*
D03*
Y-12500D02*
D03*
Y-17500D02*
D03*
Y-22500D02*
D03*
Y-27500D02*
D03*
Y-32500D02*
D03*
Y-37500D02*
D03*
Y-42500D02*
D03*
Y-47500D02*
D03*
Y-52500D02*
D03*
Y-57500D02*
D03*
Y-62500D02*
D03*
Y-67500D02*
D03*
Y-72500D02*
D03*
Y-77500D02*
D03*
Y-82500D02*
D03*
Y-87500D02*
D03*
X-107250D02*
D03*
Y-82500D02*
D03*
Y-77500D02*
D03*
Y-72500D02*
D03*
Y-67500D02*
D03*
Y-62500D02*
D03*
Y-57500D02*
D03*
Y-52500D02*
D03*
Y-47500D02*
D03*
Y-42500D02*
D03*
Y-37500D02*
D03*
Y-32500D02*
D03*
Y-27500D02*
D03*
Y-22500D02*
D03*
Y-17500D02*
D03*
Y-12500D02*
D03*
Y-7500D02*
D03*
Y-2500D02*
D03*
Y2500D02*
D03*
Y7500D02*
D03*
Y12500D02*
D03*
Y17500D02*
D03*
Y22500D02*
D03*
Y27500D02*
D03*
Y32500D02*
D03*
Y37500D02*
D03*
Y42500D02*
D03*
Y47500D02*
D03*
Y52500D02*
D03*
Y57500D02*
D03*
Y62500D02*
D03*
Y67500D02*
D03*
Y72500D02*
D03*
Y77500D02*
D03*
Y82500D02*
D03*
Y87500D02*
D03*
D85*
X87437Y-107188D02*
D03*
X82437D02*
D03*
X77438D02*
D03*
X72438D02*
D03*
X67438D02*
D03*
X62438D02*
D03*
X57438D02*
D03*
X52438D02*
D03*
X47438D02*
D03*
X42438D02*
D03*
X37438D02*
D03*
X32438D02*
D03*
X27438D02*
D03*
X22438D02*
D03*
X17437D02*
D03*
X12437D02*
D03*
X7437D02*
D03*
X2438D02*
D03*
X-2562D02*
D03*
X-7563D02*
D03*
X-12563D02*
D03*
X-17563D02*
D03*
X-22562D02*
D03*
X-27562D02*
D03*
X-32562D02*
D03*
X-37562D02*
D03*
X-42562D02*
D03*
X-47562D02*
D03*
X-52562D02*
D03*
X-57562D02*
D03*
X-62562D02*
D03*
X-67562D02*
D03*
X-72562D02*
D03*
X-77562D02*
D03*
X-82563D02*
D03*
X-87563D02*
D03*
Y107188D02*
D03*
X-82563D02*
D03*
X-77562D02*
D03*
X-72562D02*
D03*
X-67562D02*
D03*
X-62562D02*
D03*
X-57562D02*
D03*
X-52562D02*
D03*
X-47562D02*
D03*
X-42562D02*
D03*
X-37562D02*
D03*
X-32562D02*
D03*
X-27562D02*
D03*
X-22562D02*
D03*
X-17563D02*
D03*
X-12563D02*
D03*
X-7563D02*
D03*
X-2562D02*
D03*
X2438D02*
D03*
X7437D02*
D03*
X12437D02*
D03*
X17437D02*
D03*
X22438D02*
D03*
X27438D02*
D03*
X32438D02*
D03*
X37438D02*
D03*
X42438D02*
D03*
X47438D02*
D03*
X52438D02*
D03*
X57438D02*
D03*
X62438D02*
D03*
X67438D02*
D03*
X72438D02*
D03*
X77438D02*
D03*
X82437D02*
D03*
X87437D02*
D03*
D86*
X151005Y5318D02*
D03*
X157369Y11682D02*
D03*
D87*
X180001Y-20436D02*
D03*
X164445Y-4880D02*
D03*
X153131Y-16194D02*
D03*
X168687Y-31750D02*
D03*
D88*
X227750Y20500D02*
D03*
Y43000D02*
D03*
D89*
X-2066313Y37250D02*
D03*
Y54750D02*
D03*
D90*
X-2283313Y-161000D02*
D03*
Y-142000D02*
D03*
D91*
X160620Y-45932D02*
D03*
X154256Y-39568D02*
D03*
M02*
