M48
;Layer_Color=9474304
;FILE_FORMAT=4:4
METRIC,LZ
;TYPE=PLATED
T1F00S00C0.2000
T2F00S00C0.6000
T3F00S00C1.0000
T4F00S00C3.2000
%
T01
X-02294062Y-001735
X-02306812Y-0015425
X-02246812Y-0017825
X-02235813Y-0011675
X-02172563Y-0006125
Y-0004125
X-02175063Y-0002175
X-02117063Y-000255
X-02097063Y-0005125
Y-0007125
X-02065063Y-000715
X-02064187Y-00051375
X-02067312Y-00031
X-02004563Y-0002125
X-02002563Y-0004125
Y-0006125
X-01946812Y-0002675
X-01946562Y-00139
X-01961812
X-01961062Y-00166
X-01945813
X-01930063Y-00139
X-02096562Y-001385
X-02096062Y-0014625
X-02099812Y-00131
X-02113062
X-01914812Y-00139
X-01914062Y-00166
X-01929312
X-01927063Y-0007125
Y-0005125
X-01928422Y-0003075
X-01894312Y-0005125
Y-0007125
X-01832563Y-0006125
Y-0004125
X-01842812Y-0003025
X-01840813Y-00011
X-01838813Y-000035
X-01818062Y-00011
X-01868062Y-0001075
X-01868313Y00002
X-01772312Y0000525
X-01776812Y-000245
X-01757063Y-0005125
X-01757812Y-00071251
X-01724312Y-0007125
Y-0005125
X-01730312Y-00031
X-01662563Y-0004125
Y-0006125
X-01645063Y-0010825
X-01628562
X-01613313
X-01597563
X-01582312
X-01564312
X-01563813Y-00135
X-01579062
X-01594812
X-01610063
X-01628062
X-01643313
X-01659812
X-01675063
X-01690813
X-01706062
X-01719563
X-01734812
X-01750562
X-01765813
X-01782312
X-01797563
X-01797312Y-00168
X-01782063
X-01765562
X-01750312
X-01734563
X-01719312
X-01705813
X-01690562
X-01674812
X-01659563
X-01643062
X-01627812
X-01609812
X-01594563
X-01578813
X-01563562
X-01547063
X-01547312Y-00135
X-01554312Y-0007125
Y-0005125
X-01559563Y-0003075
X-01587063Y-0005125
X-01587812Y-00071251
X-01615813Y-0003475
X-01645562Y-0000875
X-01494963Y-0002125
X-01492563Y-0004125
Y-0006125
X-01484812Y-0010825
X-01466813
X-01451563
X-01435813
X-01420562
X-01404062
X-01404313Y-00135
X-01389063
X-01373313
X-01358062
X-01344563
X-01329312
X-01313562
X-01298313
X-01281812
X-01266562
X-01249813
X-01233313
X-01218063
X-01202313
X-01187063
X-01173563
X-01158313
X-01142562
X-01142312Y-00168
X-01158063
X-01173313
X-01186813
X-01202063
X-01217813
X-01233063
X-01249563
X-01266312
X-01281562
X-01298062
X-01313313
X-01329062
X-01344312
X-01357812
X-01373062
X-01388813
X-01404062
X-01420562
X-01435813
X-01453813
X-01469062
X-01484812
X-01500063
X-01516562
X-01531812
X-01532063Y-00135
X-01516812
X-01500312
X-01485063
X-01469312
X-01454062
X-01436063
X-01420813
X-01417063Y-0007125
Y-0005125
X-01384312
X-01383561Y-00071251
X-01389312Y-0003225
X-01382312Y-000175
X-01324563Y-0002125
X-01322563Y-0004125
Y-0006125
X-01298562Y-001015
X-01280563
X-01265313
X-01249563
X-01234313
X-01217813
X-01214313Y-0007125
Y-0005125
X-01217562Y-000305
X-01247812Y-0005125
X-01247812Y-00071251
X-01265813Y-0002425
X-01154313Y-0002125
X-01152562Y-0004125
Y-0006125
X-01436562Y-00025
X-01095563Y-0002375
X-01077063Y-0005125
X-01077812Y-00071251
X-01044313Y-0007125
Y-0005125
X-01048063Y-000305
X-00984563Y-0002125
X-00982562Y-0004125
Y-0006125
X-00907063Y-0007125
Y-0005125
X-00874313
Y-0007125
X-00878313Y-00031
X-00926062Y-0002475
X-00926562Y-001365
X-00911312
X-00895563
X-00880312
X-00866813
X-00851562
X-00835813
X-00820563
X-00804062
X-00788812
X-00770813
X-00755563
X-00739812
X-00739563Y-001695
X-00755312
X-00770563
X-00788562
X-00803812
X-00820312
X-00835563
X-00851312
X-00866562
X-00880062
X-00895312
X-00911062
X-00926312
X-00942812
X-00958063
X-00958313Y-001365
X-00943063
X-01095563Y-00135
X-01110813
X-01127312
X-01127063Y-00168
X-01110563
X-01095312
X-00814488Y-0002125
X-00755813Y-0002575
X-00739313Y-000315
X-00734313Y-0001825
Y-0000525
Y0000775
X-00707233Y0000125
Y-0001175
Y-0002475
Y-0003125
X-00703561Y-00051251
X-00704313Y-0007125
X-00737063
Y-0005125
X-00675892Y-0002475
Y-0001175
Y0000125
X-00648812Y0000775
X-00649062Y-000075
X-00648812Y-0001825
Y-0003125
X-00642562Y-0004125
Y-0006125
X-00661312Y-000385
X-00625812Y-0000925
X-00586813Y-00024
X-00567062Y-0005125
Y-0007125
X-00536413Y-0007175
X-00534313Y-0005125
X-00538312Y-0003125
X-00474562Y-0002125
X-00416312Y-0002375
X-00397062Y-0005125
Y-0007125
X-00364313
Y-0005125
X-00369313Y-0003125
X-00427313Y-001365
X-00442562
X-00459062
X-00474313
X-00490062
X-00505312
X-00518812
X-00534062
X-00549813
X-00565062
X-00581562
X-00596813
X-00614813
X-00630062
X-00645813
X-00661062
X-00677562
X-00692812
X-00708063
X-00724563
X-00724313Y-001695
X-00707812
X-00692562
X-00677312
X-00660813
X-00645563
X-00629813
X-00614562
X-00596562
X-00581312
X-00564813
X-00549562
X-00533812
X-00518563
X-00505062
X-00489813
X-00474062
X-00458812
X-00442313
X-00427062
X-00304562Y-0002125
X-00248062Y-00033
X-00232313Y-000125
X-00247812Y0000525
X-00255437Y00005246
X-00227062Y-0005125
Y-0007125
X-00166562Y-0007025
X-00168813Y-0006175
X-00174688Y-00057625
X-00140562Y-0005875
X-00133562Y-000645
X-00131812Y-0004
X-00141313Y-0003075
X-00134062Y-000225
X-00148062Y-000075
X-00161313Y-00034
X-00176063Y-000235
X-00198813Y-000305
X-00154812Y-00083
X-00152563Y-0008825
X-00120562Y-0008475
X-00093313Y-00082
X-00096062Y-0007225
X-00088562Y-0007275
X-00090562Y-000675
X-00093062Y-000625
X-00093772Y-000475
X-00094312Y-000375
X-00093062Y-000275
X-00091562Y-0001925
X-00090063Y-0001
X-00083991Y-000425
X-00080562Y-00058
X-00077063Y-00065
X-00082563Y-000965
X-00067562Y-000955
X-00062562Y-00091
X-00057562Y-00096
X-00052562Y-000905
X-00047562Y-00095
X-00042562Y-0009075
X-00030438Y-00122375
X-00008813Y-0012325
X00019188Y-00122
X00034938Y-00121
X00044187Y-001205
X00042438Y-0009375
X00052438Y-000955
X00032687Y-00089
X00027188Y-0008225
X00019188Y-0008825
X00016938Y-000955
X00007688Y-0008825
X00000938Y-000925
X00012188Y-0013925
X-00037812Y-00139
X-00069313Y-0014
X-00091812Y-0012925
X-00109062Y-0012275
X-00134563Y-00128
X-00142312Y-00172
X-00101062Y-001685
X-00030312Y-000315
X-00031813Y-0001175
X-00047063Y-0001225
X-00015312Y-0001175
X-00000063Y-0001125
X00015688
X00030938Y-0001075
X00035438Y-0002125
X00037438Y-0004125
Y-0006125
X00090938Y-0005775
X00094688Y-000625
X00087937Y-0005175
X00086938Y-0004625
X00090688Y-0003775
X00094187Y-0003225
X00091938Y-000175
X00096187Y-000125
X00095188Y-000025
X0009029Y000025
X00089688Y-0000775
X00143687Y-0000625
X00140188Y-00038
X00145188Y-0005275
X00169188Y-00063
Y-00069
X00134688Y-000875
X00143687Y-0011675
X00152937Y-0016075
X00128687Y-0018075
X00123188
X00192437Y-0018525
X00094937Y-00122
X00084688Y-0012225
X00067438Y-0012175
X00057438Y-0011975
X00062438Y-0009425
X00072438Y-000945
X00082688Y-00096
X00092188Y-00082
X00077438Y-0013875
X00307437Y-0013325
X00322687
X00339188
X00354437
X00353688Y-0010625
X00338438
X00321937
X00306688
X00315688Y-0007125
Y-0005125
X00310688Y-000305
X00282938Y-0005125
X00268937Y-00054
X00268188Y-0006875
X00282188Y-00071251
X00264188Y-000255
X00205837Y-00021591
X00191938Y-0001375
X00375438Y-0002125
X00434688Y-000295
X00452938Y-0005125
Y-0007125
X00485687
Y-0005125
X00481937Y-0003025
X00545438Y-0002125
X00547438Y-0004125
Y-0006125
X00622188Y-00051251
X00622938Y-0007125
X00655687
Y-0005125
X00652188Y-00031
X00603688Y-00025
X00715437Y-0002125
X00717438Y-0004125
Y-0006125
X00792937Y-0007125
Y-0005125
X00825687
Y-0007125
X00821937Y-000305
X00773187Y-00024
X00780687Y-0013775
X00765437
X00748938
X00733688
X00796438
X00811687
X00825188
X00840437
X00652937Y-00147
X00856188Y-0013775
X00871438
X00887937
X00903187
X00921188
X00936438
X00952188
X00967438
X00983938
X00999187
X00995687Y-0007125
Y-0005125
X00992438Y-000295
X00947937Y-00026
X00962937Y-0005125
Y-0007125
X01057438Y-0006125
Y-0004125
X01056438Y-0001725
X01092437Y00003749
X01114437Y000015
X01113688Y-000055
X01114187Y-0001225
X01115437Y-000245
X01133688Y-000305
X01132937Y-0005125
Y-0007125
X01165687
X01167688Y-0005875
X01167268Y-00033
Y-000265
X01170437Y-000195
X01198607Y-0002
Y-00007
Y00006
X01225687Y-000005
Y-000135
Y-000265
X01227438Y-0004125
X01212188Y-000385
X01226188Y-00063
X01241038Y-00005649
X00885437Y-0002125
X01286687Y-00025
X01306438Y-0000825
X01319688Y00007
X01330688Y-0003125
X01335688Y-0005125
Y-0007125
X01302937
Y-0005125
X01296687Y-0013
X01281438
X01264938
X01249688
X01250437Y-00157
X01265687
X01282188
X01297437
X01313188
X01328438
X01341938
X01357188
X01372937
X01388188
X01404688
X01419937
X01437937
X01453188
X01468938
X01484187
X01500688
X01515938
X01516687Y-001835
X01501438
X01484937
X01469688
X01453938
X01438687
X01420688
X01405437
X01388938
X01373687
X01357937
X01342688
X01329187
X01313938
X01298188
X01282937
X01266438
X01251188
X01312437Y-0013
X01327688
X01341187
X01356438
X01372188
X01387437
X01403938
X01419187
X01437188
X01452437
X01468188
X01483438
X01499937
X01515188
X01505688Y-0007125
Y-0005125
X01502188Y-0003125
X01472937Y-0005125
Y-0007125
X0145444Y-00023748
X01395437Y-0002125
X01397437Y-0004125
Y-0006125
X01381187Y-0000425
X01362937Y-00009
X01565437Y-0002125
X01567437Y-0004125
Y-0006125
X01598687Y-001195
X01610188Y-001255
X01626938Y-001315
X01638687Y-001385
X01560437Y-0017375
X01624187Y-0002425
X01642937Y-0005125
Y-0007125
X01675688
Y-0005125
X01671938Y-0003075
X01735437Y-0002125
X01737437Y-0004125
Y-0006125
X01812937Y-0007125
Y-0005125
X01813687Y-0003125
X01818438Y-00019
Y-00006
Y00007
X01845517Y000005
Y-000125
Y-000255
Y-00032
X01845688Y-0005125
X01846439Y-00071251
X01907437Y-0006125
Y-0004125
X01890938Y-0003775
X01879937Y-000255
X01876857Y-000125
Y000005
X01903938Y00007
Y-00006
Y-00019
X01921038Y-00005649
X01964187Y-0002475
X01982937Y-0005125
Y-0007125
X02015688
X02016438Y-0005125
X02011687Y-0003075
X01794438Y-00025
X01686908Y-00165
X01658687Y-001565
X01646438Y-0015175
X01647437Y-0014375
X02098438Y-00136
X02113687
X02130188
X02145437
X02161187
X02176438
X02189937
X02208938Y-0013475
X02224187
X02240688
X02255938
X02271687
X02286938
X02300437
X02313938
X02329187
X02344937
X02360188
X02376687
X02391938
X02392688Y-0016175
X02377437
X02360938
X02345688
X02329937
X02314688
X02301187
X02287688
X02272437
X02256687
X02241438
X02224937
X02209688
X02190688Y-00163
X02177188
X02161938
X02146187
X02130937
X02114438
X02099187
X02077437Y-0006125
Y-0004125
X02091038Y-00005649
X02133188Y-0002325
X02152937Y-0005125
Y-0007125
X02185688
Y-0005125
X02181438Y-000315
X02247437Y-0004125
Y-0006125
X02261038Y-00005649
X02303938Y-00025
X02322937Y-0005125
Y-0007125
X02355688
X02364187Y-00078
Y-000915
X02391187Y-0009075
Y-0007725
Y-00062
Y-0004625
Y-00031
Y-000145
Y0000075
X02364187Y0
Y-0001525
Y-0003175
Y-00047
X02355688Y-0005125
X02364187Y-0006275
X02349937Y-000305
X02363938Y0001775
Y00033
Y000495
Y0006475
X02390938Y000655
Y0005025
Y0003375
Y000185
X02342312Y00095375
X02320437Y00105246
X02317937Y00123
X02290188Y0012175
X02284937Y0008775
X02285437Y0007025
X02268937
X02253687
X02237937
X02222687
X02204688
X02203937Y0016175
X02188687
X02170688
X02133437Y00151
X02117687
X02102437
X02084438
X02057437Y001505
X02041687
X02046187Y0006625
X02061437
X02077187
X02114937Y0008775
X02120688Y0012175
X02147937Y00123
X02219687Y0016175
X02234937
X02251437
X02269437
X02284687
X02300437
X02315687
X02332187
X02026437Y001505
X02008438
X01977937Y00123
X01950188Y0012175
X01944937Y0008775
X01949937Y0007275
X01927437Y0007275
X01904937Y000735
X01903938Y0002
X01877688Y000265
X01876857Y000135
X01845517Y000135
X01843438Y00051
X01827688Y000595
X01818438Y0003475
X01811187Y0003125
X01774937Y0008775
X01780188Y0012225
X01807937Y00123
X01917688Y00149
X01922412Y00153725
X01934688Y0015675
X02028188Y0006625
X01616937Y000695
X01600437
X01585187
X01569437
X01554187
X01536187
X01535687Y0002475
X01520437
X01502437
X01551437
X01566687
X01583187
X01614688Y00013496
X01604937Y0008775
X01610938Y0012125
X01624438Y0013325
X01634937Y0013825
X01637937Y00123
X01591938Y0014
X01467937Y00123
X01439187Y00122
X01434937Y0008775
X01429187Y00072
X01412687
X01397437
X01381687
X01366437
X01348438
X01275437Y00069
X01264187Y000705
X01264938Y0008775
X01271188Y001225
X01297937Y00123
X01274938Y00013246
X01445188Y00013998
X01225687Y000125
Y000255
X01198607Y00019
X01166438Y000505
X01149187Y000595
X01135062Y00034125
X01125312Y00028875
X01104437Y0001925
X01102188Y0001475
X01098938Y0002375
X01092562Y00027625
X01087688Y0003225
X01094938Y0008775
X01100938Y001225
X01127937Y00123
X01242188Y00071
X00924938Y0008775
X00930437Y0012175
X00957937Y00123
X00934688Y00011996
X00861937Y000325
X00846687Y00032
X00830938
X00815687Y000315
X00799187
X00783938Y00031
X00754938Y0008775
X00760437Y0012275
X00787937Y00123
X00617938
X00591437Y00122
X00575187Y0009775
X00611688Y0002925
X00626937Y0002975
X00643438
X00658688Y0003025
X00674437
X00689688Y0003075
X00424688Y00009746
X00403937Y00096
X00420187Y001225
X00447938Y00123
X00277938
X00256187Y0013025
X00235438Y00096
X00179688Y00101
X00199366Y0006075
X00206437Y00055
X00208937Y00049
X00258937Y00043
X00258438Y0003625
X00252687Y00029
X00255187Y00012655
X00156687Y00024
X00153438Y0004075
X00143188Y000625
X00122937Y0008075
X00095437Y000775
X00091687Y000725
X00088188Y000675
X00088438Y000595
X00080437Y0005525
X00076438Y0004725
X00079688Y000375
X00086438Y0003275
X00087937Y000425
X00093313Y00037375
X00095688Y000125
X00129688Y00011
X00126687Y0011725
X00110188Y0012325
X00097437Y001325
X00070188Y0016175
X00061687Y0009325
X00060437Y0008325
X00072688Y00083
X00077438Y000875
X00052312Y00091125
X00047562Y00095375
X00017687Y00096
X00021688Y0009075
X00019188Y0008325
X00012437Y00085
X00007437Y000925
X-00012812Y000915
X-00017563Y00096
X-00022562Y0009175
X-00032313Y0009625
X-00027562Y0013875
X-00016313Y001475
X-00014312Y001735
X-00018062Y001785
X-00006562Y0016925
X-00007563Y0012375
X00016187Y0012225
X00022188Y00141
X00050437Y0015675
X00052188Y00126
X00029437Y000375
X00014188Y00037
X-00001562
X-00016812Y000365
X-00033312
X-00048562Y00036
X-00048063Y000135
X-00032812Y00014
X-00016313
X-00001063Y000145
X00014688
X00029938Y00015
X-00095063Y0001725
X-00095813Y0004225
X-00091812Y0004775
X-00094812Y000575
X-00090938Y00062625
X-00094812Y0006725
X-00092563Y00073
X-00095813Y0008225
X-00072562Y0008325
X-00113062Y001025
X-00100312Y0012325
X-00090063Y00135
X-00107563Y00139
X-00122063
X-00129062Y00136
X-00136812Y001335
X-00138813Y0009425
X-00143313Y0007225
X-00126562Y00057
X-00159812Y0005475
X-00139062Y000215
X-00122563Y0001525
X-00242062Y000215
X-00246313Y000105
X-00269062Y0003225
X-00273312Y00042
X-00279062Y00048
X-00291063Y00067
X-00265063Y0008775
X-00258813Y001225
X-00232062Y00123
X-00288062Y001235
X-00402062Y00123
X-00431312Y00122
X-00433812Y0008775
X-00424988Y00013996
X-00556937Y00056875
X-00566937Y00059625
X-00587313Y0007075
X-00609313Y0007
X-00620563Y0007075
X-00631562Y0007
X-00642563Y0007075
X-00614562Y000895
X-00599062Y001225
X-00572062Y00123
X-00548812Y000835
X-00542313Y000855
X-00649563Y000275
X-00648812Y0002075
X-00675892Y0001425
X-00707233Y0001425
X-00708063Y0005275
X-00725813Y0005975
X-00734062Y0003375
X-00741813Y0002725
X-00765238Y00013246
X-00810563Y0003575
X-00827063
X-00842313
X-00858063
X-00873313
X-00891312
X-00945062Y0008775
X-00938562Y001215
X-00912063Y00123
X-00769563Y0012225
X-00742063Y00123
X-00775062Y0008775
X-01115062
X-01109563Y0012275
X-01082063Y00123
X-01151313Y0003425
X-01167812
X-01183063
X-01198813
X-01214063
X-01232063
X-01285063Y0008775
X-01279812Y001225
X-01252063Y00123
X-01325312Y0006625
X-01345063Y00074
X-0136453Y00059528
X-01377229
X-01455063Y0008775
X-01449062Y001215
X-01422063Y00123
X-01592063
X-01601812Y0013925
X-01625063Y0008775
X-01615562Y00013746
X-01780813Y0007025
X-01795063Y0008775
X-01814563Y0007
X-01837563Y000705
X-01840813Y00028
Y00015
X-01867892Y000215
X-01900813Y0005225
X-01917812Y000605
X-01927063Y000345
X-01762063Y00123
X-01771812Y0013925
X-01941812
X-01932063Y00123
X-01965063Y0008775
X-01953817Y0006525
X-01952816Y000265
X-01955312Y00012996
X-01934312Y00028
X-02009243Y0004618
X-02032812Y00081
X-02049312Y000945
X-02081313Y0005075
Y0004125
X-02045562Y0001875
X-02125438Y00013374
X-02135063Y0008775
X-02128313Y0012325
X-02127312Y0013225
X-02111812Y0013925
X-02102063Y00123
X-02192812Y0013575
X-02192563Y001475
X-02203313Y0014375
X-02203062Y0015325
X-02203313Y0013225
X-02197563Y0017175
X-02249812Y001655
X-02244812Y001595
X-02246313Y0015
X-02256384Y00154045
X-02293562Y001645
X-02335562Y0005625
T02
X-02377272Y-00004621
Y00007879
Y00020379
Y00032879
Y00045379
X-02377272Y0009774
Y0011024
Y0012274
Y0013524
Y0014774
T03
X-02366812Y-0016275
Y-0013775
Y-0011275
Y-0008775
X-02316562Y-00087
X-02241562
T04
X-01865963Y-0014875
X-01015963
X-00335962
X00514038
X01194037
X02044037
X01704037Y0004
X01024037
X00344037
X-00335962
X-01015963
X-01695963
M30
