G04*
G04 #@! TF.GenerationSoftware,Altium Limited,Altium Designer,19.0.10 (269)*
G04*
G04 Layer_Color=8388736*
%FSLAX44Y44*%
%MOMM*%
G71*
G01*
G75*
%ADD16C,0.0500*%
%ADD23R,0.7532X0.9832*%
%ADD24R,0.7532X0.5432*%
%ADD25R,1.2032X0.8032*%
%ADD26R,0.7532X0.8032*%
%ADD27R,1.4732X0.9652*%
%ADD28R,2.0066X1.1938*%
%ADD29C,1.3112*%
%ADD30R,1.3112X1.3112*%
%ADD31R,1.7112X1.7112*%
%ADD32C,1.7112*%
%ADD33C,1.7032*%
%ADD34C,6.2032*%
D16*
X0Y-193750D02*
Y193750D01*
X2402375Y0D02*
X2402500Y125D01*
X-2402500Y193750D02*
X2402500D01*
Y-193750D02*
Y193750D01*
X-2402500Y-193750D02*
X2402500D01*
X-2402500D02*
Y193750D01*
D23*
X277750Y152450D02*
D03*
X249250D02*
D03*
X137187Y146500D02*
D03*
X108687D02*
D03*
X-57500Y153500D02*
D03*
X-86000D02*
D03*
X-235000Y159000D02*
D03*
X-263500D02*
D03*
X-406750Y154750D02*
D03*
X-435250D02*
D03*
X-576000Y156800D02*
D03*
X-604500D02*
D03*
X-750000Y154050D02*
D03*
X-778500D02*
D03*
X-2191750Y75250D02*
D03*
X-2220250D02*
D03*
X-2104750Y153250D02*
D03*
X-2133250D02*
D03*
X-1917250Y148750D02*
D03*
X-1945750D02*
D03*
X-1764500Y152450D02*
D03*
X-1793000D02*
D03*
X-1595000Y151750D02*
D03*
X-1623500D02*
D03*
X-1429750Y148750D02*
D03*
X-1458250D02*
D03*
X-1260250Y157050D02*
D03*
X-1288750D02*
D03*
X-917250Y155000D02*
D03*
X-945750D02*
D03*
X-1084250Y155800D02*
D03*
X-1112750D02*
D03*
X2310750Y141250D02*
D03*
X2282250D02*
D03*
X2139250Y139750D02*
D03*
X2110750D02*
D03*
X1970000D02*
D03*
X1941500D02*
D03*
X1800750Y146250D02*
D03*
X1772250D02*
D03*
X1582500Y136500D02*
D03*
X1554000D02*
D03*
X1460250Y150500D02*
D03*
X1431750D02*
D03*
X1291500Y150250D02*
D03*
X1263000D02*
D03*
X1117750Y155500D02*
D03*
X1089250D02*
D03*
X951000Y150300D02*
D03*
X922500D02*
D03*
X785000Y149750D02*
D03*
X756500D02*
D03*
X607750Y148500D02*
D03*
X579250D02*
D03*
X443250Y145500D02*
D03*
X414750D02*
D03*
D24*
X267750Y154650D02*
D03*
X259250D02*
D03*
X127187Y148700D02*
D03*
X118687D02*
D03*
X-67500Y155700D02*
D03*
X-76000D02*
D03*
X-245000Y161200D02*
D03*
X-253500D02*
D03*
X-416750Y156950D02*
D03*
X-425250D02*
D03*
X-586000Y159000D02*
D03*
X-594500D02*
D03*
X-760000Y156250D02*
D03*
X-768500D02*
D03*
X-2201750Y77450D02*
D03*
X-2210250D02*
D03*
X-2114750Y155450D02*
D03*
X-2123250D02*
D03*
X-1927250Y150950D02*
D03*
X-1935750D02*
D03*
X-1774500Y154650D02*
D03*
X-1783000D02*
D03*
X-1605000Y153950D02*
D03*
X-1613500D02*
D03*
X-1439750Y150950D02*
D03*
X-1448250D02*
D03*
X-1270250Y159250D02*
D03*
X-1278750D02*
D03*
X-927250Y157200D02*
D03*
X-935750D02*
D03*
X-1094250Y158000D02*
D03*
X-1102750D02*
D03*
X2300750Y143450D02*
D03*
X2292250D02*
D03*
X2129250Y141950D02*
D03*
X2120750D02*
D03*
X1960000D02*
D03*
X1951500D02*
D03*
X1790750Y148450D02*
D03*
X1782250D02*
D03*
X1572500Y138700D02*
D03*
X1564000D02*
D03*
X1450250Y152700D02*
D03*
X1441750D02*
D03*
X1281500Y152450D02*
D03*
X1273000D02*
D03*
X1107750Y157700D02*
D03*
X1099250D02*
D03*
X941000Y152500D02*
D03*
X932500D02*
D03*
X775000Y151950D02*
D03*
X766500D02*
D03*
X597750Y150700D02*
D03*
X589250D02*
D03*
X433250Y147700D02*
D03*
X424750D02*
D03*
D25*
X1795748Y110000D02*
D03*
Y97000D02*
D03*
X1775748D02*
D03*
Y110000D02*
D03*
X1965748D02*
D03*
Y97000D02*
D03*
X1945748D02*
D03*
Y110000D02*
D03*
X2135748D02*
D03*
Y97000D02*
D03*
X2115748D02*
D03*
Y110000D02*
D03*
X-2217750D02*
D03*
Y97000D02*
D03*
X-2197750D02*
D03*
Y110000D02*
D03*
X1435748D02*
D03*
Y97000D02*
D03*
X1455748D02*
D03*
Y110000D02*
D03*
X1605748D02*
D03*
Y97000D02*
D03*
X1625748D02*
D03*
Y110000D02*
D03*
X2285748D02*
D03*
Y97000D02*
D03*
X2305748D02*
D03*
Y110000D02*
D03*
X415747D02*
D03*
Y97000D02*
D03*
X435747D02*
D03*
Y110000D02*
D03*
X585747D02*
D03*
Y97000D02*
D03*
X605747D02*
D03*
Y110000D02*
D03*
X755748D02*
D03*
Y97000D02*
D03*
X775748D02*
D03*
Y110000D02*
D03*
X925748D02*
D03*
Y97000D02*
D03*
X945748D02*
D03*
Y110000D02*
D03*
X1095748D02*
D03*
Y97000D02*
D03*
X1115748D02*
D03*
Y110000D02*
D03*
X1265748D02*
D03*
Y97000D02*
D03*
X1285748D02*
D03*
Y110000D02*
D03*
X-604253D02*
D03*
Y97000D02*
D03*
X-584253D02*
D03*
Y110000D02*
D03*
X-434253D02*
D03*
Y97000D02*
D03*
X-414253D02*
D03*
Y110000D02*
D03*
X-264252D02*
D03*
Y97000D02*
D03*
X-244252D02*
D03*
Y110000D02*
D03*
X-94253D02*
D03*
Y97000D02*
D03*
X-74253D02*
D03*
Y110000D02*
D03*
X75747D02*
D03*
Y97000D02*
D03*
X95747D02*
D03*
Y110000D02*
D03*
X245748D02*
D03*
Y97000D02*
D03*
X265748D02*
D03*
Y110000D02*
D03*
X-1624252D02*
D03*
Y97000D02*
D03*
X-1604252D02*
D03*
Y110000D02*
D03*
X-1454252D02*
D03*
Y97000D02*
D03*
X-1434252D02*
D03*
Y110000D02*
D03*
X-1284252D02*
D03*
Y97000D02*
D03*
X-1264252D02*
D03*
Y110000D02*
D03*
X-1114252D02*
D03*
Y97000D02*
D03*
X-1094252D02*
D03*
Y110000D02*
D03*
X-944252D02*
D03*
Y97000D02*
D03*
X-924252D02*
D03*
Y110000D02*
D03*
X-774252D02*
D03*
Y97000D02*
D03*
X-754252D02*
D03*
Y110000D02*
D03*
X-2134252D02*
D03*
Y97000D02*
D03*
X-2114252D02*
D03*
Y110000D02*
D03*
X-1964252D02*
D03*
Y97000D02*
D03*
X-1944252D02*
D03*
Y110000D02*
D03*
X-1794252D02*
D03*
Y97000D02*
D03*
X-1774252D02*
D03*
Y110000D02*
D03*
D26*
X2507583Y3683D02*
D03*
Y12183D02*
D03*
X2421328Y3683D02*
D03*
Y12183D02*
D03*
D27*
X-1997063Y156430D02*
D03*
Y143730D02*
D03*
Y131030D02*
D03*
Y118330D02*
D03*
Y105630D02*
D03*
Y92930D02*
D03*
Y80230D02*
D03*
Y67530D02*
D03*
X-2077063D02*
D03*
Y80230D02*
D03*
Y92930D02*
D03*
Y105630D02*
D03*
Y118330D02*
D03*
Y131030D02*
D03*
Y143730D02*
D03*
Y156430D02*
D03*
D28*
X1921038Y-21250D02*
D03*
X1997038Y-31250D02*
D03*
X1921038Y-41250D02*
D03*
X1997038Y-51250D02*
D03*
X1921038Y-61250D02*
D03*
X1997038Y-71250D02*
D03*
X2091038Y-21250D02*
D03*
X2167038Y-31250D02*
D03*
X2091038Y-41250D02*
D03*
X2167038Y-51250D02*
D03*
X2091038Y-61250D02*
D03*
X2167038Y-71250D02*
D03*
X2261038Y-21250D02*
D03*
X2337038Y-31250D02*
D03*
X2261038Y-41250D02*
D03*
X2337038Y-51250D02*
D03*
X2261038Y-61250D02*
D03*
X2337038Y-71250D02*
D03*
X1411038Y-21250D02*
D03*
X1487038Y-31250D02*
D03*
X1411038Y-41250D02*
D03*
X1487038Y-51250D02*
D03*
X1411038Y-61250D02*
D03*
X1487038Y-71250D02*
D03*
X1581038Y-21250D02*
D03*
X1657038Y-31250D02*
D03*
X1581038Y-41250D02*
D03*
X1657038Y-51250D02*
D03*
X1581038Y-61250D02*
D03*
X1657038Y-71250D02*
D03*
X1751038Y-21250D02*
D03*
X1827038Y-31250D02*
D03*
X1751038Y-41250D02*
D03*
X1827038Y-51250D02*
D03*
X1751038Y-61250D02*
D03*
X1827038Y-71250D02*
D03*
X901038Y-21250D02*
D03*
X977038Y-31250D02*
D03*
X901038Y-41250D02*
D03*
X977038Y-51250D02*
D03*
X901038Y-61250D02*
D03*
X977038Y-71250D02*
D03*
X1071038Y-21250D02*
D03*
X1147038Y-31250D02*
D03*
X1071038Y-41250D02*
D03*
X1147038Y-51250D02*
D03*
X1071038Y-61250D02*
D03*
X1147038Y-71250D02*
D03*
X1241038Y-21250D02*
D03*
X1317038Y-31250D02*
D03*
X1241038Y-41250D02*
D03*
X1317038Y-51250D02*
D03*
X1241038Y-61250D02*
D03*
X1317038Y-71250D02*
D03*
X391038Y-21250D02*
D03*
X467038Y-31250D02*
D03*
X391038Y-41250D02*
D03*
X467038Y-51250D02*
D03*
X391038Y-61250D02*
D03*
X467038Y-71250D02*
D03*
X561038Y-21250D02*
D03*
X637038Y-31250D02*
D03*
X561038Y-41250D02*
D03*
X637038Y-51250D02*
D03*
X561038Y-61250D02*
D03*
X637038Y-71250D02*
D03*
X731038Y-21250D02*
D03*
X807038Y-31250D02*
D03*
X731038Y-41250D02*
D03*
X807038Y-51250D02*
D03*
X731038Y-61250D02*
D03*
X807038Y-71250D02*
D03*
X-118962Y-21250D02*
D03*
X-42962Y-31250D02*
D03*
X-118962Y-41250D02*
D03*
X-42962Y-51250D02*
D03*
X-118962Y-61250D02*
D03*
X-42962Y-71250D02*
D03*
X51038Y-21250D02*
D03*
X127038Y-31250D02*
D03*
X51038Y-41250D02*
D03*
X127038Y-51250D02*
D03*
X51038Y-61250D02*
D03*
X127038Y-71250D02*
D03*
X221038Y-21250D02*
D03*
X297038Y-31250D02*
D03*
X221038Y-41250D02*
D03*
X297038Y-51250D02*
D03*
X221038Y-61250D02*
D03*
X297038Y-71250D02*
D03*
X-628962Y-21250D02*
D03*
X-552962Y-31250D02*
D03*
X-628962Y-41250D02*
D03*
X-552962Y-51250D02*
D03*
X-628962Y-61250D02*
D03*
X-552962Y-71250D02*
D03*
X-458962Y-21250D02*
D03*
X-382962Y-31250D02*
D03*
X-458962Y-41250D02*
D03*
X-382962Y-51250D02*
D03*
X-458962Y-61250D02*
D03*
X-382962Y-71250D02*
D03*
X-288962Y-21250D02*
D03*
X-212962Y-31250D02*
D03*
X-288962Y-41250D02*
D03*
X-212962Y-51250D02*
D03*
X-288962Y-61250D02*
D03*
X-212962Y-71250D02*
D03*
X-1138962Y-21250D02*
D03*
X-1062962Y-31250D02*
D03*
X-1138962Y-41250D02*
D03*
X-1062962Y-51250D02*
D03*
X-1138962Y-61250D02*
D03*
X-1062962Y-71250D02*
D03*
X-968962Y-21250D02*
D03*
X-892962Y-31250D02*
D03*
X-968962Y-41250D02*
D03*
X-892962Y-51250D02*
D03*
X-968962Y-61250D02*
D03*
X-892962Y-71250D02*
D03*
X-798962Y-21250D02*
D03*
X-722962Y-31250D02*
D03*
X-798962Y-41250D02*
D03*
X-722962Y-51250D02*
D03*
X-798962Y-61250D02*
D03*
X-722962Y-71250D02*
D03*
X-1648962Y-21250D02*
D03*
X-1572962Y-31250D02*
D03*
X-1648962Y-41250D02*
D03*
X-1572962Y-51250D02*
D03*
X-1648962Y-61250D02*
D03*
X-1572962Y-71250D02*
D03*
X-1478962Y-21250D02*
D03*
X-1402962Y-31250D02*
D03*
X-1478962Y-41250D02*
D03*
X-1402962Y-51250D02*
D03*
X-1478962Y-61250D02*
D03*
X-1402962Y-71250D02*
D03*
X-1308962Y-21250D02*
D03*
X-1232962Y-31250D02*
D03*
X-1308962Y-41250D02*
D03*
X-1232962Y-51250D02*
D03*
X-1308962Y-61250D02*
D03*
X-1232962Y-71250D02*
D03*
X-2158962Y-21250D02*
D03*
X-2082962Y-31250D02*
D03*
X-2158962Y-41250D02*
D03*
X-2082962Y-51250D02*
D03*
X-2158962Y-61250D02*
D03*
X-2082962Y-71250D02*
D03*
X-1988962Y-21250D02*
D03*
X-1912962Y-31250D02*
D03*
X-1988962Y-41250D02*
D03*
X-1912962Y-51250D02*
D03*
X-1988962Y-61250D02*
D03*
X-1912962Y-71250D02*
D03*
X-1818962Y-21250D02*
D03*
X-1742962Y-31250D02*
D03*
X-1818962Y-41250D02*
D03*
X-1742962Y-51250D02*
D03*
X-1818962Y-61250D02*
D03*
X-1742962Y-71250D02*
D03*
X-2328962Y-21250D02*
D03*
X-2252962Y-31250D02*
D03*
X-2328962Y-41250D02*
D03*
X-2252962Y-51250D02*
D03*
X-2328962Y-61250D02*
D03*
X-2252962Y-71250D02*
D03*
D29*
X-2377272Y45379D02*
D03*
Y32879D02*
D03*
Y20379D02*
D03*
Y7879D02*
D03*
D30*
Y-4621D02*
D03*
D31*
X-2380500Y165250D02*
D03*
X-2366812Y-87750D02*
D03*
D32*
X-2380500Y140250D02*
D03*
Y90250D02*
D03*
Y115250D02*
D03*
X-2366812Y-137750D02*
D03*
Y-162750D02*
D03*
Y-112750D02*
D03*
D33*
X-2241562Y-87000D02*
D03*
X-2316562D02*
D03*
D34*
X1704037Y40000D02*
D03*
X1024037D02*
D03*
X344037D02*
D03*
X-335962D02*
D03*
X-1015963D02*
D03*
X-1695963D02*
D03*
X-1865963Y-148750D02*
D03*
X-1015963D02*
D03*
X-335962D02*
D03*
X514038D02*
D03*
X1194037D02*
D03*
X2044037D02*
D03*
M02*
